<svg xmlns="http://www.w3.org/2000/svg" viewBox="0 0 64 64" role="img" aria-label="京东云 JoyBuilder">
  <defs>
    <linearGradient id="jd" x1="0" y1="0" x2="1" y2="1">
      <stop offset="0%" stop-color="#e1251b"/>
      <stop offset="100%" stop-color="#ff6650"/>
    </linearGradient>
  </defs>
  <rect width="64" height="64" rx="14" fill="url(#jd)"/>
  <path d="M32 12 20 22l-6 16 6 8 12 6 12-6 6-8-6-16-12-10Z" fill="#fff" opacity=".95"/>
  <path d="M28 28c-3 0-5 2-5 5s2 5 5 5h2v-3h-2c-1 0-2-1-2-2s1-2 2-2h2v-3h-2Zm8 0c-3 0-5 2-5 5s2 5 5 5h2v-3h-2c-1 0-2-1-2-2s1-2 2-2h2v-3h-2Z" fill="#e1251b"/>
</svg>
