<svg xmlns="http://www.w3.org/2000/svg" viewBox="0 0 64 64" role="img" aria-label="快手可灵">
  <defs>
    <linearGradient id="ks" x1="0" y1="0" x2="1" y2="1">
      <stop offset="0%" stop-color="#ff6633"/>
      <stop offset="100%" stop-color="#ffa066"/>
    </linearGradient>
  </defs>
  <rect width="64" height="64" rx="14" fill="url(#ks)"/>
  <path d="M14 26a8 8 0 1 1 16 0 8 8 0 0 1-16 0Zm20 0a8 8 0 1 1 16 0 8 8 0 0 1-16 0Z" fill="#fff" opacity=".95"/>
  <path d="M14 42a8 8 0 0 1 8-8h4a8 8 0 0 1 8 8v6H14v-6Zm16-14a8 8 0 0 1 8-8h4a8 8 0 0 1 8 8v6H30v-6Z" fill="#fff" opacity=".7"/>
</svg>
