<svg xmlns="http://www.w3.org/2000/svg" viewBox="0 0 64 64" role="img" aria-label="MiniMax">
  <defs>
    <linearGradient id="mm" x1="0" y1="0" x2="1" y2="1">
      <stop offset="0%" stop-color="#6c5ce7"/>
      <stop offset="100%" stop-color="#a29bfe"/>
    </linearGradient>
  </defs>
  <rect width="64" height="64" rx="14" fill="url(#mm)"/>
  <path d="M16 20h32l-6 8c2 2 4 5 4 8 0 5-4 9-9 9-3 0-6-1-7-4l-3 4-3-4c-1 3-4 4-7 4-5 0-9-4-9-9 0-3 2-6 4-8l-6-8Z" fill="#fff" opacity=".95"/>
  <circle cx="26" cy="36" r="2" fill="#6c5ce7"/>
  <circle cx="38" cy="36" r="2" fill="#6c5ce7"/>
</svg>
