<svg xmlns="http://www.w3.org/2000/svg" viewBox="0 0 64 64" role="img" aria-label="UCloud UModelVerse">
  <defs>
    <linearGradient id="ucloud" x1="0" y1="0" x2="1" y2="1">
      <stop offset="0%" stop-color="#0052d9"/>
      <stop offset="100%" stop-color="#2680ff"/>
    </linearGradient>
  </defs>
  <rect width="64" height="64" rx="14" fill="url(#ucloud)"/>
  <path d="M20 18c-3 0-6 3-6 6v16c0 3 3 6 6 6h12v-6h-10c-1 0-2-1-2-2V26c0-1 1-2 2-2h10v-6H20Zm24 0v6h-10c-1 0-2 1-2 2v12c0 1 1 2 2 2h10v6H32c-3 0-6-3-6-6V24c0-3 3-6 6-6h12Z" fill="#fff" opacity=".95"/>
</svg>
