<svg xmlns="http://www.w3.org/2000/svg" viewBox="0 0 64 64" role="img" aria-label="讯飞星火 Spark">
  <defs>
    <linearGradient id="xfyun" x1="0" y1="0" x2="1" y2="1">
      <stop offset="0%" stop-color="#1e88e5"/>
      <stop offset="100%" stop-color="#42a5f5"/>
    </linearGradient>
  </defs>
  <rect width="64" height="64" rx="14" fill="url(#xfyun)"/>
  <path d="M32 12c-2 0-3 1-3 3v4c-7 1-12 6-12 12 0 5 4 9 9 9h-3c-1 0-2 1-2 2v6c0 1 1 2 2 2h18c1 0 2-1 2-2v-6c0-1-1-2-2-2h-3c5 0 9-4 9-9 0-6-5-11-12-12v-4c0-2-1-3-3-3Z" fill="#fff" opacity=".95"/>
  <circle cx="28" cy="32" r="2" fill="#1e88e5"/>
  <circle cx="36" cy="32" r="2" fill="#1e88e5"/>
</svg>
